<svg width="170" height="79" fill="none" xmlns="http://www.w3.org/2000/svg"><path d="M8.024 68.876l-3.729 8.225c-.302.689-.652 1.178-1.049 1.466-.397.289-.874.433-1.431.433-.36 0-.695-.056-1.007-.168A2.186 2.186 0 010 78.33l.468-.74a1.87 1.87 0 001.36.558c.341 0 .63-.093.865-.279.246-.186.473-.503.68-.95l.327-.712-3.331-7.33h1.049l2.807 6.241 2.806-6.242h.993zm20.961 0v7.345h-.921v-5.809l-3.02 4.916h-.454l-3.02-4.93v5.823h-.92v-7.345h1.02l3.161 5.293 3.218-5.293h.936zm13.922 0h1.006v3.254h4.692v-3.254h1.007v7.345h-1.007v-3.24h-4.692v3.24h-1.006v-7.345zm23.756 2.598c.936.009 1.65.214 2.14.614.492.4.738.978.738 1.732 0 .782-.265 1.382-.794 1.8-.53.42-1.285.624-2.268.615l-2.949-.014v-7.345h1.007v2.57l2.126.028zm4.125-2.598h1.007v7.345h-1.007v-7.345zm-4.366 6.605c.69.01 1.21-.125 1.56-.405.359-.288.538-.707.538-1.256 0-.54-.175-.94-.524-1.201-.35-.261-.875-.396-1.574-.405l-1.885-.028v3.267l1.885.028zm19.296-6.605h1.007v5.837l4.976-5.837h.893v7.345h-1.007v-5.837l-4.962 5.837h-.907v-7.345zm3.388-1.06c-.642 0-1.153-.159-1.53-.475-.379-.317-.573-.764-.582-1.341h.723c.01.363.142.656.397.88.255.214.586.32.992.32.407 0 .737-.106.993-.32.264-.224.401-.517.41-.88h.724c-.01.577-.208 1.024-.596 1.34-.378.317-.888.475-1.53.475zm39.47 7.54v2.639h-.95V76.22h-6.677v1.774h-.95v-2.64h.425c.501-.027.841-.39 1.021-1.089.18-.698.302-1.675.369-2.932l.099-2.458h5.5v6.48h1.163zm-5.841-3.966c-.047 1.043-.137 1.904-.269 2.583-.133.67-.369 1.131-.709 1.383h4.65v-5.6h-3.587l-.085 1.634zm21.936 4.901c-.718 0-1.366-.158-1.942-.475a3.59 3.59 0 01-1.361-1.34c-.331-.568-.496-1.21-.496-1.927 0-.717.165-1.36.496-1.927a3.49 3.49 0 011.361-1.327c.576-.316 1.224-.474 1.942-.474s1.365.158 1.942.474a3.401 3.401 0 011.347 1.327c.33.568.496 1.21.496 1.927 0 .717-.166 1.359-.496 1.927a3.498 3.498 0 01-1.347 1.34c-.577.317-1.224.475-1.942.475zm0-.88c.529 0 1.002-.116 1.417-.349a2.53 2.53 0 00.993-1.019 3.1 3.1 0 00.354-1.494c0-.559-.118-1.057-.354-1.494a2.443 2.443 0 00-.993-1.006 2.762 2.762 0 00-1.417-.363c-.529 0-1.007.121-1.432.363a2.553 2.553 0 00-.992 1.006c-.237.437-.355.935-.355 1.494 0 .558.118 1.056.355 1.494.245.438.576.777.992 1.02.425.232.903.348 1.432.348zM170 68.876v7.345h-.921v-5.809l-3.02 4.916h-.454l-3.019-4.93v5.823h-.922v-7.345h1.021l3.161 5.293 3.218-5.293H170zm-67.97-51.124c-6.178 0-11.25 5.01-11.25 11.115v9.657c0 6.104 5.072 11.115 11.25 11.115 6.179 0 11.25-5.01 11.25-11.115v-9.748c0-6.104-5.071-11.024-11.25-11.024zm2.305 21.592c0 1.276-1.014 2.278-2.305 2.278-1.291 0-2.305-1.002-2.305-2.278V27.956c0-1.276 1.014-2.278 2.305-2.278 1.291 0 2.305 1.002 2.305 2.278v11.388zm-30.523 5.922c0 2.46-2.029 4.373-4.427 4.373-2.49 0-4.426-2.004-4.426-4.373V11.283c0-2.46 2.029-4.373 4.426-4.373 2.49 0 4.427 2.005 4.427 4.373v33.983zm86.966-16.98v1.367h3.043c2.49 0 4.427 1.549 4.427 4.009 0 2.46-2.029 3.917-4.427 3.917h-3.043v.228h-8.853v-9.156c0-6.104 5.072-10.933 11.251-10.933h2.397c2.49 0 4.427 1.549 4.427 4.009 0 2.46-2.029 4.008-4.427 4.008h-2.397c-1.476 0-2.398 1.094-2.398 2.551z" fill="#fff"/><path d="M160.778 39.07v-9.52h-8.853v9.156c0 6.105 5.072 10.933 11.251 10.933h2.397c2.49 0 4.427-1.549 4.427-4.008 0-2.46-2.029-4.01-4.427-4.01h-2.397c-1.476 0-2.398-1.092-2.398-2.55zm-34.386-12.609h-6.487v-8.743h6.118c6.181 0 11.07 5.01 11.07 11.111v2.368c0 2.46-1.569 4.372-4.059 4.372-2.491 0-4.035-1.949-4.035-4.316l-.024-2.515c0-1.457-1.107-2.277-2.583-2.277z" fill="#fff"/><path d="M139.105 26.461h-15.149v-8.743h14.78c6.181 0 11.07 5.01 11.07 11.111l-.016 2.381c0 2.459-1.552 4.359-4.043 4.359s-4.078-1.991-4.078-4.359l.019-2.472c0-1.457-1.107-2.277-2.583-2.277z" fill="#fff"/><path d="M115.467 22.096c0-2.422 1.987-4.384 4.438-4.384 2.452 0 4.439 1.962 4.439 4.384v23.276c0 2.421-1.987 4.384-4.439 4.384-2.451 0-4.438-1.963-4.438-4.384V22.096zm13.532 6.688c0-2.21 1.813-4 4.051-4 2.237 0 4.043 1.803 4.043 4.013l.007 16.841c0 2.21-1.813 4.001-4.05 4.001-2.238 0-4.051-1.79-4.051-4V28.784zm12.689-.575c0-2.21 1.814-4.001 4.051-4.001s4.051 1.791 4.051 4V45.66c0 2.21-1.814 4-4.051 4s-4.051-1.79-4.051-4V28.21zM77.412 26.44H65.524v-8.743h11.52c6.18 0 11.07 5.01 11.07 11.112l-.017 2.38c0 2.46-1.552 4.36-4.043 4.36-2.49 0-4.078-1.992-4.078-4.36l.02-2.471c0-1.458-1.108-2.277-2.584-2.277z" fill="#fff"/><path d="M79.995 28.188c0-2.21 1.814-4 4.051-4s4.051 1.79 4.051 4v17.45c0 2.21-1.813 4.001-4.05 4.001-2.238 0-4.052-1.79-4.052-4v-17.45z" fill="#fff"/><rect width="56" height="56" rx="5" fill="#00ECC2"/><path d="M4 7.558A3.564 3.564 0 017.57 4h40.86A3.564 3.564 0 0152 7.558v40.883A3.564 3.564 0 0148.43 52H7.57A3.564 3.564 0 014 48.441V7.558z" fill="#00ECC2"/><path d="M26.08 6.694l-21 17.462a2.99 2.99 0 00-1.08 2.3v20.55A2.997 2.997 0 007 50h42c1.657 0 3-1.34 3-2.993V26.456c0-.889-.395-1.731-1.08-2.3l-21-17.462a3.005 3.005 0 00-3.84 0z" fill="#0AC1A6"/><path d="M27.365 11.223l-19 15.338a.975.975 0 00-.365.758v17.7c0 .541.448.981 1 .981h38c.552 0 1-.44 1-.982V27.32a.975.975 0 00-.365-.758l-19-15.338a1.014 1.014 0 00-1.27 0z" fill="#fff"/><path d="M40.15 38c1.021 0 1.85.776 1.85 1.733V50H14V39.733c0-.957.829-1.733 1.85-1.733h24.3z" fill="#0AC1A6"/><rect x="12" y="35" width="32" height="11" rx="1" fill="#0AC1A6"/><path d="M27.373 17.005a1 1 0 011.254 0l15.165 12.216c.735.592.316 1.779-.627 1.779h-30.33c-.943 0-1.362-1.187-.627-1.779l15.165-12.216z" fill="#0AC1A6"/></svg>