<svg width="16" height="16" viewBox="0 0 16 16" fill="none" xmlns="http://www.w3.org/2000/svg">
<path d="M8.00004 0C3.58879 0 0 3.58753 0 7.99723C0 13.99 6.36439 17.8163 11.6369 15.122C12.0248 14.9238 12.1785 14.4488 11.9802 14.0611C11.782 13.6734 11.3068 13.5198 10.9189 13.7179C6.67628 15.886 1.57747 12.7971 1.57747 7.99723C1.57747 4.45705 4.45861 1.57692 8.00004 1.57692C11.5415 1.57692 14.4226 4.45705 14.4226 7.99723V9.19869C14.4226 9.86809 13.8778 10.4127 13.2082 10.4127C12.5386 10.4127 11.9938 9.86806 11.9938 9.19869V7.99723C11.9938 5.79585 10.2022 4.00488 8.00008 4.00488C5.79792 4.00488 4.00625 5.79585 4.00625 7.99723C4.00625 10.1986 5.79785 11.9896 8 11.9896C9.13522 11.9896 10.1613 11.5136 10.8891 10.7509C11.3907 11.4973 12.243 11.9896 13.2081 11.9896C14.7476 11.9896 16 10.7376 16 9.19869V7.99723C16.0001 3.58753 12.4113 0 8.00004 0ZM8.00004 10.4127C6.66768 10.4127 5.58376 9.32912 5.58376 7.99727C5.58376 6.66541 6.66771 5.58184 8.00004 5.58184C9.33236 5.58184 10.4163 6.66541 10.4163 7.99727C10.4163 9.32912 9.33236 10.4127 8.00004 10.4127Z" fill="#00ECC2"/>
</svg>
