<svg width="16" height="16" fill="none" xmlns="http://www.w3.org/2000/svg"><path d="M8 0C3.589 0 0 3.588 0 7.997c0 5.993 6.364 9.82 11.637 7.125a.788.788 0 10-.718-1.404c-4.243 2.168-9.342-.92-9.342-5.72A6.43 6.43 0 018 1.576a6.429 6.429 0 016.423 6.42V9.2a1.216 1.216 0 01-2.43 0V7.997A3.998 3.998 0 008 4.005a3.998 3.998 0 00-3.994 3.992A3.998 3.998 0 008 11.99a3.984 3.984 0 002.89-1.24A2.792 2.792 0 0016 9.2V7.997C16 3.587 12.411 0 8 0zm0 10.413a2.419 2.419 0 01-2.416-2.416A2.419 2.419 0 018 5.582a2.419 2.419 0 012.416 2.415A2.419 2.419 0 018 10.413z" fill="#00ECC2"/></svg>