<svg width="47" height="26" fill="none" xmlns="http://www.w3.org/2000/svg"><path fill-rule="evenodd" clip-rule="evenodd" d="M0 13C0 5.82 5.82 0 13 0h21c7.18 0 13 5.82 13 13s-5.82 13-13 13H13C5.82 26 0 20.18 0 13zm39.677-5.687a.021.021 0 00-.005-.023c-5.128-4.941-13.601-1.347-13.605 5.64 0 1.257.296 2.486.863 3.596.122.239.16.513.09.772l-.56 2.034a1 1 0 001.216 1.233L29.843 20a1.07 1.07 0 01.733.08c5.203 2.5 11.423-1.246 11.426-7.146a7.864 7.864 0 00-2.32-5.598.021.021 0 01-.005-.023zM5 13c0-4.411 3.589-8 8-8s8 3.589 8 8-3.589 8-8 8-8-3.589-8-8z" fill="#00ECC2"/><path d="M37.672 14.538l-.006.05c-1.466-.73-1.62-.828-1.808-.544-.132.197-.515.643-.63.775-.117.13-.233.14-.43.05-.2-.1-.843-.31-1.603-.99-.592-.53-.99-1.18-1.107-1.38-.195-.338.214-.386.586-1.09.066-.14.032-.25-.017-.35-.05-.1-.448-1.08-.615-1.47-.16-.39-.324-.34-.448-.34-.384-.034-.665-.028-.912.23-1.076 1.182-.805 2.402.116 3.7 1.81 2.368 2.774 2.804 4.537 3.41.476.15.91.13 1.253.08.383-.06 1.178-.48 1.344-.95.17-.47.17-.86.12-.95-.049-.09-.18-.14-.38-.23zM14.838 9.725l-5.729 1.91a1.12 1.12 0 00-.776 1.077c0 .497.305.92.776 1.077l2.326.775.776 2.326c.157.471.58.776 1.076.776.497 0 .92-.305 1.077-.776l1.91-5.73A1.13 1.13 0 0016 10a1.129 1.129 0 00-1.162-.275z" fill="#fff"/></svg>